<?xml version="1.0" encoding="utf-8"?>
<!-- Generator: Adobe Illustrator 16.0.0, SVG Export Plug-In . SVG Version: 6.00 Build 0)  -->
<!DOCTYPE svg PUBLIC "-//W3C//DTD SVG 1.1//EN" "http://www.w3.org/Graphics/SVG/1.1/DTD/svg11.dtd">
<svg version="1.1" id="Ebene_1" xmlns="http://www.w3.org/2000/svg" xmlns:xlink="http://www.w3.org/1999/xlink" x="0px" y="0px"
	 width="400px" height="300px" viewBox="0 0 400 300" enable-background="new 0 0 400 300" xml:space="preserve">
<path fill="#010202" d="M227.831,227.9v2c10.25,0,18.634-8.048,19.221-18.152h0.057v-2l-19.277,0.004v2l17.221-0.004
	C244.468,220.75,236.979,227.9,227.831,227.9z"/>
<path fill="#010202" d="M203.984,227.9v2c-10.25,0-18.633-8.048-19.22-18.152h-0.057v-2l19.277,0.004v2l-17.22-0.004
	C187.348,220.75,194.836,227.9,203.984,227.9z"/>
<path fill="#010202" d="M118.269,110v-2c10.25,0,18.633,8.048,19.22,18.152h0.057v2l-19.277-0.004v-2l17.22,0.004
	C134.905,117.15,127.417,110,118.269,110z"/>
<path fill="#010202" d="M185.801,105.882v-2c-10.25,0-18.633,8.048-19.22,18.152h-0.057v2l19.277-0.004v-2l-17.22,0.004
	C169.165,113.033,176.652,105.882,185.801,105.882z"/>
<path fill="#010202" d="M235.919,83.227h-2c0,10.25,8.048,18.633,18.152,19.22v0.057h2l-0.004-19.277h-2l0.004,17.221
	C243.069,99.864,235.919,92.375,235.919,83.227z"/>
<path fill="#010202" d="M301.149,134.25h2c0,10.25-8.048,18.633-18.152,19.221v0.057h-2l0.004-19.277h2l-0.004,17.221
	C293.999,150.887,301.149,143.399,301.149,134.25z"/>
<path fill="#010202" d="M228.956,154.465v2c10.251,0,18.633-8.048,19.221-18.153h0.057v-2l-19.277,0.004v2l17.221-0.004
	C245.593,147.314,238.105,154.465,228.956,154.465z"/>
<path fill="#010202" d="M228.833,172.394v-2c10.251,0,18.633,8.048,19.221,18.153h0.057v2l-19.277-0.004v-2l17.221,0.004
	C245.47,179.544,237.982,172.394,228.833,172.394z"/>
<path fill="#010202" d="M323.25,77.5h-6h-90.875V34.373h-6v0.063H83.221h-0.251h-1.749v99.813v2.5h2h28.801v64.805h-3.933v6h3.933
	v50.246h-0.247v6.061H317.25h6v-6.061V83.5h0.25v-6H323.25z M227.091,257.801h-22.974v-25.926h22.974V257.801z M269.876,134.339h-4
	v21.822h4v0.253h-40.785v-22.405h40.785V134.339z M317.25,257.801h-45.374v-50.373h45.374V257.801z M317.25,128.009h-17v6h17v67.419
	h-45.374v-45.267v-21.822v-0.331H285.5v-6h-60.997v6h2.588v22.405v2V173h2v-14.586h40.785v43.014h-40.785V188.5h-2v23.251h2v-4.323
	h40.785v50.373h-40.785v-30.14h-2v2.214h-22.974v-2.214h-2v30.14h-84.096v-50.246h84.096v4.196h2v-4.196h7.231v-6h-7.231v-10.183v-2
	v-0.122h-2v0.122l-15.22,0.004c0.541-8.335,7.005-15.071,15.22-16.024v0.398h2v-0.526v-2V134.25h6.383v-5.5h-24.699v-4.715h-2.165
	v4.715H163.25v-17h-6v17h-39.229v-2.018h-6v2.018v5.5H83.221V59.062h17.029v-2.126H83.221V40.437h28.554v70.022h6.247V40.437h65.229
	V106h2.551V40.437h34.574V83.75h6V83.5h90.875V128.009z M202.117,191.372v10.183h-84.096V134.25h84.096v37.081
	c-9.32,0.968-16.672,8.606-17.22,18.045h-0.057v2L202.117,191.372z"/>
</svg>
