<?xml version="1.0" encoding="utf-8"?>
<!-- Generator: Adobe Illustrator 16.0.0, SVG Export Plug-In . SVG Version: 6.00 Build 0)  -->
<!DOCTYPE svg PUBLIC "-//W3C//DTD SVG 1.1//EN" "http://www.w3.org/Graphics/SVG/1.1/DTD/svg11.dtd">
<svg version="1.1" id="Ebene_1" xmlns="http://www.w3.org/2000/svg" xmlns:xlink="http://www.w3.org/1999/xlink" x="0px" y="0px"
	 width="400px" height="300px" viewBox="0 0 400 300" enable-background="new 0 0 400 300" xml:space="preserve">
<g>
	<path d="M221.866,206.016h-0.117v2.109h2h17.375v-2.109h-17.235c1.047-8.726,8.481-15.516,17.485-15.516v-2
		C231.266,188.5,222.923,196.184,221.866,206.016z"/>
	<path d="M288.333,60h-71.662V35.5h0.163v-1.667h-0.163h-2h-98.504h-1.333V35.5V60H114v0.25V65v213.25v5.5V284h127.5h5.5h41.333H294
		v-5.75V65v-5H288.333z M260.898,166.5v-6.575h1.935v6.575H260.898z M262.833,167.184v6.566h-1.935v-6.566H262.833z M247,158.925
		V154h25.909v4.925H247z M256.75,166.5v-6.575h3.055v6.575H256.75z M259.805,167.184v6.566h-3.055v-6.566H259.805z M255.657,167.184
		v6.566h-2.06v-6.566H255.657z M253.598,166.5v-6.575h2.057v6.575H253.598z M249.945,166.5v-6.575h2.558v6.575H249.945z
		 M252.503,167.184v6.566h-2.558v-6.566H252.503z M248.852,159.925v6.575h-3.418v-6.575H248.852z M265.185,159.925l0.696,6.575
		h-1.951v-6.575H265.185z M266.19,159.925h0.628l2.36,6.575h-2.293L266.19,159.925z M267.881,159.925h1.158l3.653,6.575h-2.451
		L267.881,159.925z M263.928,167.184h2.025l0.694,6.566h-2.72V167.184z M267.653,173.75l-0.695-6.566h2.466l2.357,6.566H267.653z
		 M272.844,173.75l-2.357-6.566h2.586l3.648,6.566H272.844z M277.866,173.75l-3.648-6.566h2.562l4.692,6.566H277.866z
		 M273.838,166.5l-3.653-6.575h1.408l4.698,6.575H273.838z M272.823,159.925h0.383l-0.001,0.002l8.379,5.877v0.696h-4.062
		L272.823,159.925z M281.584,160.064l-7.613-3.468l-0.207,0.455v-0.639h0.146V154h7.674V160.064z M273.833,159.146v-0.222h-0.069
		v-1.323l7.82,3.562v3.419L273.833,159.146z M282.255,161.469l6.078,2.77v5.077l-6.078-4.263V161.469z M282.255,160.37V154h6.078
		v4.925v1v3.214L282.255,160.37z M288.333,65v82.75H247h-5.5h-0.521v-17.264v-2h-2.108v0.117
		c-9.716,1.044-17.315,9.202-17.499,19.146H218v-3.5h-4v3.5h-2v-5.125h-4v0.053h-11.721c0.729-6.074,5.612-10.886,11.721-11.495h4
		V86.75V85.5v-0.506c9.898-0.231,18.008-7.812,19.048-17.494h0.117v-2.109h-2H212V65h2.671h2H288.333z M207.501,154
		c-0.733,6.083-5.565,10.916-11.652,11.646V147.75h-1.599v-7.5v-5.5v-1.5v-1.5h-15.083v-45H206h2v42.937
		c-6.934,0.619-12.486,6.094-13.227,12.991h-0.087v1.572h1.491H208v3.5h-2V154H207.501z M143.465,86.75
		c-0.54,8.49-7.104,15.359-15.463,16.362V85.876V80.75h-8.752V65H206v2.5h5.79H212h17.025c-1.028,8.575-8.231,15.266-17.025,15.494
		V81.25V79.5h-6v1.75h-26.833H175h-32v5.5H143.465z M179.167,134.75h11.083v13h-11.083V134.75z M116.167,35.5h98.504V60h-98.504
		V35.5z M190.251,278.25H119.25v-117.5h4.875h2.042v-2.5V154H135v-6.25h-8.833v-6h-2h-0.042h-4.875v-55h6.643v16.501v2h2.109v-0.117
		c9.463-1.017,16.915-8.789,17.462-18.384H175v61h-10.5V154H175h4.167h11.083v11.891h-17.375h-2V168h0.118
		c1.047,9.75,9.263,17.377,19.258,17.504V278.25z M190.25,168v15.504c-8.89-0.125-16.199-6.859-17.237-15.504H190.25z M241.5,278.25
		h-47.25v-55h47.25V278.25z M244.395,174.25h-2.892V178H241.5v41.25h-47.25v-51.982h1.599v-0.088
		c6.922-0.744,12.434-6.258,13.183-13.18h15.719v-6.25h-1.381c0.181-8.839,6.892-16.092,15.499-17.125v17.125h-0.118V154h2.75v3.305
		c-10.104,0.004-18.442,7.688-19.499,17.516h-0.117v2.109h2h17.375v-2.109h-17.236c1.047-8.723,8.479-15.512,17.479-15.516v0.195
		h2.892V174.25z M245.434,173.75v-6.566h3.418v6.566H245.434z M247,243.25v-2.5h9.275l0.008,2.5H247z M256.289,245.25l0.013,4.25
		H247v-4.25H256.289z M247,238.75v-2.25h9.264l0.006,2.25H247z M247,234.5v-3h9.248l0.009,3H247z M247,229.5v-2.75h9.232l0.009,2.75
		H247z M247,224.75v-1.5V222h9.219l0.01,2.75H247z M247,220v-0.75v-3.5h9.2l0.013,4.25H247z M288.333,278.25H247V251.5h9.309
		l0.01,3.035v0.967h10.129v0.075h12.559v-0.968l0.01-3.034h9.31v-2h-9.302l0.013-4.25h9.289v-2h-9.283l0.008-2.5h9.275v-2h-9.271
		l0.006-2.25h9.265v-2h-9.257l0.009-3h9.248v-2h-9.241l0.009-2.75h9.232v-2h-9.229l0.01-2.75h9.22v-2h-9.214l0.014-4.25h9.2v-2
		h-19.984v1.123h-0.002l-0.125,36.624l0.743,0.003h0.074l0.545,0.002v-0.002h8.076l-0.01,2.905h-8.766v-0.074h-11.193l-0.01-2.906
		h8.076v0.002l0.545-0.002h0.074l0.742-0.003l-0.125-36.624h-0.002v-1.123H247V178h41.333V278.25z M257.646,243.25l-0.008-2.5h8.07
		l0.009,2.5H257.646z M265.727,245.25l0.017,4.25h-8.076l-0.015-4.25H265.727z M257.633,238.75l-0.007-2.25h8.069l0.009,2.25
		H257.633z M257.62,234.5l-0.009-3h8.068l0.01,3H257.62z M257.604,229.5l-0.008-2.75h8.066l0.009,2.75H257.604z M257.591,224.75
		l-0.009-2.75h8.064l0.01,2.75H257.591z M257.576,220l-0.014-4.25h8.062l0.017,4.25H257.576z M277.742,222.075l-0.01,2.75h-8.064
		l0.01-2.75H277.742z M269.684,220.075l0.017-4.25h8.062l-0.014,4.25H269.684z M277.729,226.825l-0.008,2.75h-8.066l0.009-2.75
		H277.729z M277.713,231.575l-0.009,3h-8.069l0.01-3H277.713z M277.698,236.575l-0.007,2.25h-8.071l0.009-2.25H277.698z
		 M277.686,240.825l-0.008,2.5h-8.072l0.01-2.5H277.686z M277.672,245.325l-0.014,4.25h-8.076l0.016-4.25H277.672z M282.702,173.75
		l-4.692-6.566h3.573h0.672V166.5v-0.226l6.078,4.263v3.213H282.702z"/>
</g>
</svg>
